<?xml version="1.0" encoding="UTF-8"?>
<svg xmlns="http://www.w3.org/2000/svg" width="512" height="512" viewBox="0 0 48 48" aria-hidden="true">
  <defs>
    <clipPath id="a"><path d="M0 0h48v48H0z"/></clipPath>
  </defs>
  <g clip-path="url(#a)">
    <path fill="#FFC107" d="M43.611 20.083H42V20H24v8h11.303C33.915 31.659 29.406 35 24 35c-7.18 0-13-5.82-13-13s5.82-13 13-13c3.163 0 6.056 1.157 8.293 3.06l5.657-5.657C34.943 3.053 29.747 1 24 1 11.85 1 2 10.85 2 23s9.85 22 22 22 22-9.85 22-22c0-1.486-.153-2.937-.389-4.417z"/>
    <path fill="#FF3D00" d="M6.306 14.691l6.571 4.818C14.451 16.164 18.81 13 24 13c3.163 0 6.056 1.157 8.293 3.06l5.657-5.657C34.943 7.053 29.747 5 24 5c-7.438 0-13.74 4.064-17.694 9.691z"/>
    <path fill="#4CAF50" d="M24 45c5.342 0 10.207-2.047 13.86-5.385l-6.4-5.402C29.334 35.662 26.86 36.6 24 36.6c-5.369 0-9.9-3.618-11.516-8.518l-6.478 4.988C9.021 40.63 15.946 45 24 45z"/>
    <path fill="#1976D2" d="M43.611 20.083H42V20H24v8h11.303c-1.076 3.043-3.26 5.612-6.443 7.213l6.4 5.402C38.221 37.98 42 31.5 42 23c0-1.486-.153-2.937-.389-4.417z"/>
  </g>
</svg>
